<svg xmlns="http://www.w3.org/2000/svg" viewBox="0 0 24 24" fill="currentColor">
  <path d="M22.46 6c-.85.377-1.76.639-2.71.755 1-.6 1.765-1.55 2.125-2.685-.93.552-1.96.955-3.06 1.172-.878-.936-2.13-1.52-3.515-1.52-2.66 0-4.82 2.16-4.82 4.82 0 .38.045.75.135 1.105-4.005-.2-7.56-2.12-9.94-5.05-.415.715-.655 1.545-.655 2.435 0 1.675.85 3.155 2.14 4.025-.79-.025-1.535-.24-2.185-.6v.06c0 2.335 1.66 4.285 3.86 4.725-.405.11-.835.165-1.275.165-.31 0-.615-.03-.92-.085.62 1.91 2.41 3.3 4.53 3.34-1.645 1.29-3.72 2.06-5.96 2.06-.39 0-.77-.023-1.14-.067 2.14 1.37 4.685 2.17 7.41 2.17 8.89 0 13.74-7.36 13.74-13.74 0-.21-.005-.42-.015-.63.94-.68 1.76-1.53 2.405-2.5z"/>
</svg>